<?xml version="1.0" standalone="no"?>
<!DOCTYPE svg PUBLIC "-//W3C//DTD SVG 20010904//EN"
 "http://www.w3.org/TR/2001/REC-SVG-20010904/DTD/svg10.dtd">
<svg version="1.0" xmlns="http://www.w3.org/2000/svg"
 width="720.000000pt" height="300.000000pt" viewBox="0 0 720.000000 300.000000"
 preserveAspectRatio="xMidYMid meet">

<g transform="translate(0.000000,300.000000) scale(0.100000,-0.100000)"
fill="#000000" stroke="none">
<path d="M348 2990 c18 -4 41 -15 52 -25 10 -9 37 -19 59 -22 25 -4 41 -11 41
-19 0 -19 5 -18 34 11 29 29 80 34 90 8 4 -9 1 -20 -6 -24 -9 -6 -5 -11 12
-17 74 -28 101 -43 96 -51 -6 -9 30 -25 48 -22 5 1 12 -2 15 -8 4 -5 50 -11
104 -13 64 -2 97 -7 97 -14 0 -7 11 -15 24 -18 15 -4 26 -14 28 -29 4 -31 64
-36 97 -7 25 21 61 27 61 10 0 -5 7 -10 15 -10 8 0 15 -7 15 -15 0 -18 36 -20
54 -3 7 7 11 20 8 30 -3 12 1 18 13 18 20 0 45 23 45 43 0 13 16 21 70 34 8 2
74 8 145 13 169 14 217 32 163 62 -23 12 -23 12 7 19 24 5 25 7 8 8 -16 1 -23
7 -23 22 0 19 4 21 33 17 17 -3 41 -2 52 3 11 4 -320 7 -735 7 -415 0 -740 -4
-722 -8z"/>
<path d="M3098 2993 c12 -2 30 -2 40 0 9 3 -1 5 -23 4 -22 0 -30 -2 -17 -4z"/>
<path d="M3736 2984 c-4 -9 -4 -19 -1 -22 3 -3 5 -1 5 5 0 6 9 9 21 6 16 -4
20 -2 17 8 -7 21 -34 23 -42 3z"/>
<path d="M4508 2993 c7 -3 16 -2 19 1 4 3 -2 6 -13 5 -11 0 -14 -3 -6 -6z"/>
<path d="M4548 2993 c6 -2 18 -2 25 0 6 3 1 5 -13 5 -14 0 -19 -2 -12 -5z"/>
<path d="M4808 2993 c7 -3 16 -2 19 1 4 3 -2 6 -13 5 -11 0 -14 -3 -6 -6z"/>
<path d="M3085 2950 c3 -5 11 -10 16 -10 6 0 7 5 4 10 -3 6 -11 10 -16 10 -6
0 -7 -4 -4 -10z"/>
<path d="M3150 2950 c0 -14 26 -23 41 -15 8 6 7 10 -2 16 -19 12 -39 11 -39
-1z"/>
<path d="M3320 2942 l-35 -4 30 -13 30 -14 -32 6 c-18 3 -33 2 -33 -3 0 -5 13
-10 28 -11 16 -1 35 -3 42 -5 16 -3 26 31 13 41 -4 3 -24 5 -43 3z"/>
<path d="M3696 2933 l-29 -15 26 -16 c15 -9 27 -20 27 -23 0 -11 -46 -16 -68
-8 -13 5 -22 4 -22 -1 0 -6 7 -10 15 -10 8 0 15 -5 15 -11 0 -5 3 -8 8 -5 4 2
18 -2 32 -10 16 -9 19 -13 9 -14 -9 0 -19 3 -22 6 -3 4 -34 8 -67 9 -34 2 -64
5 -67 8 -2 3 0 15 7 26 9 17 8 21 -4 21 -8 0 -22 10 -30 22 -9 12 -16 17 -16
10 0 -8 -5 -10 -12 -6 -7 4 -8 3 -4 -4 4 -8 -4 -16 -21 -23 -18 -7 -29 -7 -31
0 -2 5 -10 7 -18 4 -8 -3 -17 2 -20 12 -5 13 -9 14 -15 3 -12 -18 -11 -31 1
-23 6 3 7 -1 4 -9 -4 -10 -1 -16 7 -16 10 -1 8 -4 -3 -11 -13 -7 -24 -5 -43 7
-14 9 -25 12 -25 7 0 -15 48 -33 88 -33 21 0 42 -4 47 -9 6 -5 25 -12 44 -15
18 -2 38 -9 44 -15 16 -16 48 -13 69 6 15 13 35 16 99 14 51 -1 79 2 75 8 -4
5 3 12 14 16 27 9 26 35 -2 35 l-23 1 23 18 c12 11 20 26 16 34 -7 18 -66 29
-76 13 -6 -8 -10 -8 -16 1 -5 8 -15 7 -36 -4z m-86 -133 c0 -5 -4 -10 -10 -10
-5 0 -10 5 -10 10 0 6 5 10 10 10 6 0 10 -4 10 -10z"/>
<path d="M3910 2940 c0 -5 5 -10 10 -10 6 0 10 5 10 10 0 6 -4 10 -10 10 -5 0
-10 -4 -10 -10z"/>
<path d="M6928 2943 c7 -3 16 -2 19 1 4 3 -2 6 -13 5 -11 0 -14 -3 -6 -6z"/>
<path d="M6803 2919 c-46 -13 -41 -29 10 -29 23 0 60 -9 82 -20 29 -15 34 -20
18 -20 -11 0 -23 -6 -26 -14 -8 -19 59 -31 97 -17 28 11 27 31 -2 31 -15 0
-15 2 -2 10 11 7 4 10 -27 10 -44 0 -62 19 -20 21 12 1 2 5 -22 10 -24 5 -48
6 -52 3 -5 -3 -9 -3 -9 1 0 3 10 10 23 15 20 8 20 9 -8 8 -16 0 -45 -4 -62 -9z"/>
<path d="M3200 2910 c0 -5 5 -10 10 -10 6 0 10 5 10 10 0 6 -4 10 -10 10 -5 0
-10 -4 -10 -10z"/>
<path d="M3616 2905 c4 -8 8 -15 10 -15 2 0 4 7 4 15 0 8 -4 15 -10 15 -5 0
-7 -7 -4 -15z"/>
<path d="M3140 2900 c-18 -12 -2 -12 25 0 13 6 15 9 5 9 -8 0 -22 -4 -30 -9z"/>
<path d="M6529 2900 c-9 -5 -33 -12 -54 -14 -21 -3 -41 -9 -44 -15 -4 -6 -22
-17 -41 -25 -29 -12 -32 -16 -17 -21 12 -5 16 -14 12 -26 -5 -15 -2 -18 19
-17 14 1 26 7 26 13 0 14 79 65 101 65 19 0 49 25 49 41 0 12 -30 11 -51 -1z"/>
<path d="M6590 2900 c0 -6 7 -10 15 -10 8 0 15 2 15 4 0 2 -7 6 -15 10 -8 3
-15 1 -15 -4z"/>
<path d="M6668 2903 c7 -3 16 -2 19 1 4 3 -2 6 -13 5 -11 0 -14 -3 -6 -6z"/>
<path d="M6960 2901 c0 -16 45 -31 93 -31 48 1 34 15 -24 24 -20 3 -43 8 -52
12 -10 3 -17 1 -17 -5z"/>
<path d="M3581 2884 c0 -11 3 -14 6 -6 3 7 2 16 -1 19 -3 4 -6 -2 -5 -13z"/>
<path d="M4863 2883 c9 -2 25 -2 35 0 9 3 1 5 -18 5 -19 0 -27 -2 -17 -5z"/>
<path d="M3104 2868 c-2 -3 14 -9 35 -13 29 -5 38 -11 34 -21 -6 -15 5 -18 32
-8 13 5 14 8 3 15 -9 6 -5 9 13 9 14 0 30 -5 37 -12 9 -9 12 -8 12 5 0 12 -8
17 -27 17 -17 0 -23 3 -16 8 7 4 -17 8 -53 7 -36 0 -68 -3 -70 -7z"/>
<path d="M3290 2870 c-13 -9 -13 -10 0 -10 13 0 13 -1 0 -10 -8 -5 -10 -10 -5
-10 21 0 40 19 30 29 -7 7 -16 7 -25 1z"/>
<path d="M4777 2869 c8 -8 16 -8 30 0 16 9 14 10 -11 11 -22 0 -27 -3 -19 -11z"/>
<path d="M4830 2860 c-23 -7 -24 -8 -3 -9 43 -2 35 -21 -9 -22 -34 0 -39 -2
-22 -9 29 -11 37 -26 26 -46 -6 -11 -11 -13 -16 -5 -4 6 -31 11 -60 11 -39 0
-58 -5 -74 -21 -12 -11 -27 -17 -33 -13 -6 3 -56 8 -110 9 -78 3 -103 0 -114
-12 -20 -20 -10 -33 26 -33 16 0 29 -4 29 -8 0 -5 12 -15 28 -22 25 -12 26
-13 7 -21 -15 -7 -11 -8 18 -6 20 2 37 0 37 -5 0 -4 8 -4 17 -1 12 5 15 2 10
-10 -7 -20 4 -22 21 -5 16 16 28 2 13 -16 -9 -10 -9 -16 -1 -21 7 -4 10 -16 7
-26 -4 -14 4 -23 31 -36 26 -12 37 -14 40 -5 5 15 32 16 32 1 0 -6 9 -8 22 -3
21 6 22 5 8 -11 -14 -17 -14 -18 10 -5 14 8 31 13 38 12 6 -2 12 4 12 13 0 13
7 15 38 8 53 -10 81 -7 101 11 20 18 41 21 41 6 0 -5 12 -10 26 -10 21 0 24 4
19 20 -5 17 -2 20 25 20 17 0 33 -6 36 -14 13 -34 74 -37 219 -12 44 8 84 11
89 8 5 -3 6 0 2 6 -4 6 8 18 29 28 19 9 43 30 53 46 15 26 21 29 49 24 18 -2
35 0 38 5 4 5 19 9 34 9 22 0 31 7 41 30 14 33 20 36 38 18 9 -9 13 -8 17 4 4
10 25 19 56 23 51 7 71 21 48 36 -27 16 2 22 56 11 30 -6 68 -9 84 -6 20 4 30
1 34 -9 5 -12 -8 -16 -64 -22 -38 -4 -69 -10 -69 -14 0 -3 12 -11 28 -18 52
-22 88 -24 135 -8 46 15 96 16 130 1 11 -5 27 -2 45 10 15 10 36 23 47 29 11
6 20 17 20 25 0 12 -13 15 -60 13 -54 -2 -58 -1 -36 11 23 13 22 13 -19 20
-31 5 -46 3 -52 -6 -6 -10 -11 -9 -19 5 -14 24 -49 22 -49 -3 0 -27 -43 -27
-95 0 -39 20 -125 26 -125 8 0 -9 -87 -2 -144 11 -47 11 -56 8 -49 -19 5 -17
0 -20 -31 -20 -20 0 -36 5 -36 10 0 6 13 10 30 10 22 0 28 4 24 15 -5 11 -21
13 -77 10 -40 -3 -76 -5 -80 -5 -5 0 -6 -3 -4 -7 7 -11 -73 -9 -97 2 -11 5
-26 4 -37 -3 -10 -7 -32 -12 -49 -12 -17 0 -42 -8 -57 -17 -27 -18 -100 -25
-109 -11 -3 4 -16 8 -29 8 -13 0 -30 8 -37 19 -10 14 -30 20 -93 24 -44 3 -91
2 -105 -3z m510 -20 c0 -5 -4 -10 -10 -10 -5 0 -10 5 -10 10 0 6 5 10 10 10 6
0 10 -4 10 -10z"/>
<path d="M3643 2793 c-53 -10 -34 -63 29 -83 40 -12 41 -13 21 -23 -15 -6 -21
-17 -19 -31 2 -18 12 -22 67 -27 37 -3 49 -6 29 -7 -27 -2 -31 -5 -20 -12 11
-7 0 -10 -37 -10 -40 0 -51 3 -47 14 9 24 -41 7 -77 -26 -26 -24 -36 -28 -50
-20 -10 7 -29 7 -50 2 -46 -12 -77 -18 -61 -13 21 8 13 23 -13 23 -16 0 -25
-6 -25 -15 0 -9 -10 -16 -27 -16 -16 -1 -37 -2 -48 -3 -12 -1 -19 -7 -17 -15
5 -24 -20 -31 -95 -26 -71 5 -73 4 -73 -18 0 -33 -36 -60 -71 -53 -27 5 -29 4
-29 -29 0 -19 5 -35 10 -35 6 0 10 -4 10 -10 0 -13 -25 -13 -71 0 -30 8 -38
16 -41 40 -3 22 -1 30 11 30 14 0 14 1 1 10 -23 15 -60 12 -60 -5 0 -10 -10
-15 -27 -15 -16 0 -38 -3 -50 -6 -17 -5 -23 -2 -23 10 0 9 7 16 15 16 8 0 15
5 15 10 0 6 -19 11 -42 11 -30 2 -35 3 -15 6 48 7 32 31 -25 37 -92 10 -208
12 -208 4 0 -5 -22 -8 -50 -8 -27 0 -50 5 -50 10 0 6 -9 10 -20 10 -11 0 -20
-4 -20 -10 0 -6 -43 -8 -117 -5 -99 3 -115 2 -100 -9 9 -7 17 -19 17 -25 0 -7
7 -19 15 -28 9 -8 15 -17 13 -18 -2 -2 -33 -1 -70 2 -48 4 -68 10 -68 19 0 8
-7 14 -15 14 -10 0 -15 10 -15 28 0 25 -5 29 -47 40 -27 7 -63 9 -82 6 -27 -6
-32 -4 -26 6 5 9 4 11 -3 6 -7 -4 -12 -18 -12 -32 0 -15 -6 -24 -15 -24 -8 0
-15 -8 -15 -19 0 -14 -6 -17 -24 -14 -13 3 -32 0 -43 -6 -10 -6 -12 -11 -5
-11 17 0 15 -20 -2 -20 -8 0 -17 -6 -19 -12 -4 -10 -6 -10 -6 0 -1 6 -13 12
-27 12 -33 0 -64 17 -64 35 0 14 -44 22 -175 30 -176 11 -1088 95 -1098 102
-6 4 -20 8 -30 8 -10 1 -22 8 -27 14 -4 7 -28 16 -54 18 -31 4 -46 10 -46 20
0 11 -12 13 -60 7 -53 -6 -60 -5 -54 10 3 9 1 16 -5 16 -6 0 -11 -4 -11 -10 0
-5 -15 -1 -32 10 -18 11 -41 20 -50 20 -17 0 -18 -65 -18 -1234 l0 -1233 31
-39 c70 -89 184 -159 297 -183 76 -16 6509 -16 6584 0 99 21 210 83 271 152
16 18 17 94 17 1283 0 1090 -2 1264 -14 1264 -8 0 -17 -9 -21 -19 -4 -12 -14
-19 -28 -18 -57 3 -107 -4 -119 -17 -8 -7 -34 -17 -58 -21 -23 -4 -57 -13 -75
-21 -18 -7 -49 -14 -69 -16 -21 -1 -40 -6 -42 -10 -3 -4 -14 -8 -25 -8 -16 0
-18 -3 -10 -19 12 -21 5 -31 -21 -31 -10 0 -35 -9 -55 -20 -21 -11 -56 -20
-78 -20 -22 0 -53 -7 -69 -15 -15 -8 -32 -12 -38 -9 -5 3 -32 6 -59 6 -56 -1
-88 8 -111 32 -16 16 -102 40 -93 27 2 -4 -13 -18 -35 -30 -23 -13 -37 -27
-34 -35 4 -9 -8 -15 -35 -20 -23 -3 -41 -11 -41 -16 0 -5 -7 -7 -16 -3 -9 3
-20 0 -24 -7 -7 -11 -14 -11 -35 -2 -29 13 -65 16 -65 5 0 -5 -32 -8 -70 -8
-39 0 -74 -5 -78 -10 -4 -6 -27 -17 -52 -24 -25 -7 -57 -19 -72 -27 -14 -8
-35 -14 -46 -14 -11 0 -27 -7 -36 -15 -18 -18 -72 -20 -79 -2 -4 9 -7 9 -15
-1 -5 -7 -41 -18 -80 -24 -49 -7 -72 -15 -72 -24 0 -9 -12 -14 -37 -14 -45 0
-153 -22 -153 -31 0 -3 -17 -9 -37 -13 -21 -3 -51 -13 -67 -21 -24 -13 -44
-14 -125 -5 -90 9 -97 8 -112 -10 -9 -10 -19 -16 -23 -13 -3 3 1 11 10 17 11
8 13 20 9 39 -6 22 -13 27 -39 27 -17 0 -40 6 -51 14 -33 22 -65 4 -65 -38 0
-58 -7 -65 -46 -54 -19 5 -38 7 -43 4 -9 -6 -48 24 -121 92 -30 28 -63 47 -98
57 -32 10 -55 23 -58 33 -11 34 -22 47 -43 50 -11 2 -21 8 -21 14 0 6 -6 6
-15 -2 -17 -14 -34 -4 -68 38 -20 23 -91 65 -99 57 -3 -3 -15 6 -28 20 -13 14
-32 25 -42 25 -11 0 -16 5 -13 10 3 6 1 10 -6 10 -7 0 -21 7 -31 17 -10 9 -35
19 -56 23 -37 6 -37 6 -13 19 14 8 21 9 17 2 -4 -6 -3 -11 1 -11 5 0 14 14 20
30 6 17 7 30 2 30 -5 0 -9 -5 -9 -12 0 -6 -10 -3 -22 8 -20 16 -21 17 -9 1 11
-14 12 -20 2 -30 -10 -9 -11 -8 -6 5 5 13 0 20 -16 27 -22 8 -21 9 19 22 42
12 69 40 57 59 -4 6 -58 10 -123 10 -79 0 -112 3 -102 10 15 10 11 10 -27 3z
m-53 -257 c0 -9 -40 -13 -46 -5 -3 5 6 9 20 9 14 0 26 -2 26 -4z m55 -6 c3 -5
12 -7 20 -3 17 6 20 -13 4 -23 -6 -3 -15 -1 -19 6 -4 7 -13 9 -19 6 -6 -4 -11
-2 -11 5 0 8 -4 8 -15 -1 -13 -11 -14 -10 -9 4 7 17 39 22 49 6z m145 -6 c0
-8 -5 -12 -10 -9 -6 4 -8 11 -5 16 9 14 15 11 15 -7z m30 1 c11 -13 10 -14 -4
-9 -9 3 -16 10 -16 15 0 13 6 11 20 -6z m34 -1 c5 -14 4 -15 -9 -4 -17 14 -19
20 -6 20 5 0 12 -7 15 -16z m106 6 c0 -6 -5 -8 -11 -4 -6 3 -15 0 -20 -7 -7
-12 -9 -12 -9 0 0 7 -6 11 -15 8 -8 -4 -16 -3 -19 2 -3 4 13 8 35 9 23 2 39
-2 39 -8z m-230 -9 c0 -6 -4 -13 -10 -16 -5 -3 -10 1 -10 9 0 9 5 16 10 16 6
0 10 -4 10 -9z m-185 -81 c-3 -5 -11 -10 -16 -10 -6 0 -7 5 -4 10 3 6 11 10
16 10 6 0 7 -4 4 -10z m135 -5 c0 -2 -9 -3 -19 -2 -11 0 -18 5 -15 9 4 6 34 0
34 -7z m135 6 c3 -6 -3 -9 -14 -8 -11 0 -17 5 -15 9 7 11 22 10 29 -1z m248
-18 c-7 -2 -19 -2 -25 0 -7 3 -2 5 12 5 14 0 19 -2 13 -5z m-1306 -25 c-3 -8
-6 -5 -6 6 -1 11 2 17 5 13 3 -3 4 -12 1 -19z m1103 -138 c0 -5 -7 -7 -15 -4
-8 4 -15 8 -15 10 0 2 7 4 15 4 8 0 15 -4 15 -10z m73 3 c-7 -2 -21 -2 -30 0
-10 3 -4 5 12 5 17 0 24 -2 18 -5z m90 0 c-7 -2 -21 -2 -30 0 -10 3 -4 5 12 5
17 0 24 -2 18 -5z"/>
<path d="M1341 2771 c-9 -6 -12 -18 -8 -32 3 -13 2 -29 -4 -35 -11 -14 -1 -41
27 -68 16 -17 94 -23 94 -7 0 5 11 12 25 15 23 6 24 7 8 26 -10 11 -27 20 -38
20 -40 0 -65 12 -65 31 0 11 -7 19 -16 19 -11 0 -14 6 -9 20 7 22 6 23 -14 11z"/>
<path d="M4615 2770 c-3 -5 1 -10 10 -10 9 0 13 5 10 10 -3 6 -8 10 -10 10 -2
0 -7 -4 -10 -10z"/>
<path d="M3905 2679 c-4 -17 -4 -33 0 -37 3 -3 30 -6 60 -6 36 0 55 -5 57 -13
2 -10 11 -9 38 4 46 23 44 35 -5 45 -22 5 -54 15 -72 23 -50 24 -70 20 -78
-16z"/>
<path d="M7128 2703 c7 -3 16 -2 19 1 4 3 -2 6 -13 5 -11 0 -14 -3 -6 -6z"/>
<path d="M160 2670 c0 -5 5 -10 10 -10 6 0 10 5 10 10 0 6 -4 10 -10 10 -5 0
-10 -4 -10 -10z"/>
<path d="M4037 2569 c7 -7 15 -10 18 -7 3 3 -2 9 -12 12 -14 6 -15 5 -6 -5z"/>
<path d="M3328 2563 c7 -3 16 -2 19 1 4 3 -2 6 -13 5 -11 0 -14 -3 -6 -6z"/>
<path d="M1810 2531 c0 -11 26 -22 34 -14 3 3 3 10 0 14 -7 12 -34 11 -34 0z"/>
<path d="M4117 2527 c-12 -30 -8 -37 18 -37 14 0 25 5 25 10 0 6 -6 10 -14 10
-8 0 -16 8 -18 18 -3 16 -4 16 -11 -1z"/>
<path d="M1420 2500 c0 -5 5 -10 10 -10 6 0 10 5 10 10 0 6 -4 10 -10 10 -5 0
-10 -4 -10 -10z"/>
<path d="M1497 2499 c7 -7 15 -10 18 -7 3 3 -2 9 -12 12 -14 6 -15 5 -6 -5z"/>
<path d="M2890 2480 c0 -5 10 -10 23 -10 18 0 19 2 7 10 -19 13 -30 13 -30 0z"/>
</g>
</svg>
